<svg width="58" height="40" viewBox="0 0 58 40" fill="none" xmlns="http://www.w3.org/2000/svg">
<path d="M23.575 4.28495L19.9994 0.798584L0 20.2986L19.9994 39.7986L23.575 36.3122L7.15129 20.2986L23.575 4.28495Z" fill="white"/>
<path d="M37.225 22.6939C37.225 21.5779 36.457 20.8819 35.485 20.7139V20.6899C36.313 20.4139 36.877 19.7899 36.877 18.8539C36.877 17.1379 35.305 16.6699 33.985 16.6699H30.601V25.1659H33.985C35.605 25.1659 37.225 24.5419 37.225 22.6939ZM34.897 19.1299C34.897 19.7299 34.453 20.0539 33.685 20.0539H32.581V18.3019H33.589C34.453 18.3019 34.897 18.5539 34.897 19.1299ZM35.173 22.5019C35.173 23.3299 34.381 23.5099 33.733 23.5099H32.581V21.5659H33.721C34.597 21.5659 35.173 21.7939 35.173 22.5019ZM42.0014 22.7659C42.0014 23.5099 41.5574 23.9899 40.7654 23.9899C40.3694 23.9899 39.9134 23.8339 39.9134 23.3779C39.9134 22.6699 40.8854 22.5619 41.7494 22.5619H42.0014V22.7659ZM39.3854 21.0739C39.7454 20.7379 40.2974 20.4619 40.8614 20.4619C41.4734 20.4619 41.9414 20.7379 41.9414 21.3259V21.4219C40.2014 21.4219 38.1014 21.7099 38.1014 23.4379C38.1014 24.8419 39.3254 25.3099 40.2734 25.3099C40.9814 25.3099 41.6654 25.0219 41.9654 24.5299H42.0014V25.1659H43.8014V22.1539C43.8014 19.9819 43.0574 18.9979 41.0534 18.9979C40.0814 18.9979 39.0854 19.3459 38.3894 20.0059L39.3854 21.0739ZM50.5263 19.8019C50.0583 19.3219 49.1583 18.9979 48.3063 18.9979C46.4463 18.9979 44.9703 20.2339 44.9703 22.1779C44.9703 24.1579 46.4343 25.3579 48.3183 25.3579C49.1943 25.3579 50.0343 25.0699 50.5263 24.5899L49.4343 23.2579C49.1943 23.5459 48.7623 23.7019 48.3663 23.7019C47.5023 23.7019 46.9623 23.0059 46.9623 22.1779C46.9623 21.3499 47.5143 20.6419 48.3423 20.6419C48.7383 20.6419 49.1703 20.8339 49.3863 21.1219L50.5263 19.8019ZM55.3255 21.8899L57.6295 19.1899H55.2415L53.3335 21.6139H53.2975V16.0939H51.3175V25.1659H53.2975V22.2979H53.3335L55.2895 25.1659H57.7255L55.3255 21.8899Z" fill="white"/>
</svg>
